<!-- <svg width="300" height="300" viewBox="0 0 300 300" fill="none" xmlns="http://www.w3.org/2000/svg">
<g clip-path="url(#clip0_3_3)">
<path fill-rule="evenodd" clip-rule="evenodd" d="M150 300C67.1573 300 0 232.843 0 150C0 67.1573 67.1573 0 150 0C232.843 0 300 67.1573 300 150C300 232.843 232.843 300 150 300ZM150 272.727C217.78 272.727 272.727 217.78 272.727 150C272.727 82.2196 217.78 27.2727 150 27.2727C82.2196 27.2727 27.2727 82.2196 27.2727 150C27.2727 217.78 82.2196 272.727 150 272.727ZM81.8182 163.636V136.364H218.182V163.636H81.8182ZM81.8182 204.545V177.273H218.182V204.545H81.8182ZM81.8182 122.727V95.4545H218.182V122.727H81.8182Z" fill="#0062D6"/>
</g>
<defs>
<clipPath id="clip0_3_3">
<rect width="300" height="300" fill="white"/>
</clipPath>
</defs>
</svg> -->

<svg viewBox="0 0 300 300" fill="none" xmlns="http://www.w3.org/2000/svg">
<g clip-path="url(#clip0_3_3)">
<path fill-rule="evenodd" clip-rule="evenodd" d="M150 300C67.1573 300 0 232.843 0 150C0 67.1573 67.1573 0 150 0C232.843 0 300 67.1573 300 150C300 232.843 232.843 300 150 300ZM150 272.727C217.78 272.727 272.727 217.78 272.727 150C272.727 82.2196 217.78 27.2727 150 27.2727C82.2196 27.2727 27.2727 82.2196 27.2727 150C27.2727 217.78 82.2196 272.727 150 272.727ZM81.8182 163.636V136.364H218.182V163.636H81.8182ZM81.8182 204.545V177.273H218.182V204.545H81.8182ZM81.8182 122.727V95.4545H218.182V122.727H81.8182Z" fill="#0062D6"/>
</g>
<defs>
<clipPath id="clip0_3_3">
<rect width="300" height="300" fill="white"/>
</clipPath>
</defs>
</svg>
